<?xml version="1.0" encoding="UTF-8"?>
<svg id="Layer_1" data-name="Layer 1" xmlns="http://www.w3.org/2000/svg" viewBox="0 0 1080 1080">
  <defs>
    <style>
      .cls-1 {
        fill: #0ebc7b;
      }

      .cls-1, .cls-2 {
        stroke-width: 0px;
      }

      .cls-2 {
        fill: #fff;
      }
    </style>
  </defs>
  <g id="SyMllr">
    <g>
      <path class="cls-2" d="m207.59,545.53c-11.56,0-23.11.04-34.67-.02-3.48-.02-4.62,1.35-3.73,4.78,2.25,8.72,12.3,16.97,22.69,18.6,8.85,1.39,17.03-.15,24.68-4.86,5.6-3.45,15.81.3,17.55,6.7,1.37,5.05-2.87,7.47-6.22,9.66-11.16,7.3-23.56,9.4-36.67,7.93-14.89-1.66-27.62-7.41-36.74-19.74-5.78-7.81-8.69-16.75-9.45-26.36-.48-6.07-.05-12.07,1.08-18.14,2.36-12.68,9.66-22.03,19.34-29.63,23.59-18.53,55.39-9.79,70.45,9.7,8.25,10.67,12.47,22.3,11.59,35.79-.25,3.87-1.49,5.89-5.94,5.78-11.31-.28-22.64-.09-33.96-.09,0-.03,0-.07,0-.1Zm-11.44-17.22s0-.05,0-.08c7.42,0,14.84.03,22.25,0,5.03-.02,6.53-2.39,4.53-7.04-4.6-10.7-15.28-17.52-27.12-17.31-11.87.2-22.86,7.7-26.96,18.39-1.5,3.92-.35,5.93,3.88,6.01,7.8.15,15.61.04,23.41.04Z"/>
      <path class="cls-2" d="m604.1,513.3c0-21.31,0-42.62.01-63.93,0-1.55.16-3.11.31-4.66.27-2.72,1.75-3.87,4.54-3.86,24.36.06,48.73.09,73.09.02,3.72-.01,5.29,1.46,5.12,5.15-.2,4.36-.23,8.73-.3,13.1-.04,2.5-1.73,2.56-3.57,2.57-16.32.02-32.64.14-48.96.04-4.45-.03-6.49,1.72-6.42,6.18.14,9.68.14,19.36.3,29.03.04,2.47,1.8,3.23,4.02,3.24,14.37.05,28.73.1,43.1.18,10.57.06,11.11.6,10.52,11.25-.51,9.32,1.09,9.21-9.64,9.38-14.13.23-28.27.28-42.4.16-4.35-.04-5.76,1.77-5.74,5.87.13,18.03,0,36.07.22,54.1.06,4.51-1.92,6-5.98,5.99-4.06-.01-8.12,0-12.18.15-3.97.15-5.92-1.53-6.04-5.59-.5-16.78-.4-33.56-.12-50.34.1-6.01.02-12.02.02-18.03.02,0,.05,0,.07,0Z"/>
      <path class="cls-2" d="m898.04,545.37c-11.01,0-22.02,0-33.02,0-4.18,0-5.22,1.63-3.48,5.42,9.68,21.05,30.68,22.86,47.57,13.48,6.06-3.37,8.21-3.34,14.11,2.07.74.68,1.43,1.41,2.19,2.05,3.47,2.94,3.44,6.02-.26,8.64-17.12,12.13-35.35,14.69-55.4,7.73-22.99-7.98-36.57-33.53-31.72-56.09,4.61-21.44,16.61-36.15,38.65-42.86,20.08-6.12,49.63,4.98,58.56,27.51,3.29,8.3,5.44,16.93,5.61,25.95.07,4.03-1.99,5.72-5.81,6.05-12.33,1.08-24.67.19-37,.04Zm15.51-17.54c3.41-.03,4.67-1.65,3.73-5.19-2.02-7.65-7.62-12.21-14.11-15.3-16.99-8.06-33.7-1.58-41.68,15.63-1.53,3.3-.23,5.32,3.4,5.32,7.95,0,40.39-.38,48.66-.46Z"/>
      <path class="cls-2" d="m795.64,545.34c-14.63.27-26.33-.46-38.05.16-3.56.19-4.44,1.63-3.83,4.87,1.4,7.44,10.79,16.14,19.48,18.08,9.91,2.21,19.22.62,28.07-4.13,6.99-3.76,15.21-1.04,18.4,6.29,1.24,2.85-.93,4.58-2.76,6.09-6.62,5.49-14.34,9.04-22.65,10.65-19.57,3.79-37.02-.86-51.52-14.87-6.32-6.11-9.08-14.25-11.36-22.48-7.28-26.31,8.44-54.17,34.89-63.23,23.8-8.15,51.8,4.76,61.19,27.99,3.31,8.19,6.28,16.23,5.96,25.24-.14,3.79-1.69,5.39-5.38,5.37-11.79-.04-23.58-.02-32.45-.02Zm-14.59-17.39c8.19.11,16.38.7,24.58.09,3.27-.24,4.23-1.98,3.34-4.91-2.94-9.71-9.92-15.53-19.32-17.78-15.78-3.77-29.58,3.01-34.82,16.22-1.66,4.17-.32,6.3,4.22,6.35,7.33.09,14.67.02,22.01.02Z"/>
      <path class="cls-2" d="m526.16,537.37c.14,28.49-22.9,50.63-52.57,50.94-27.03.28-53.66-19.55-54.04-49.61-.4-32.21,24.53-54.03,52.68-54.18,29.69-.16,54.79,23.61,53.93,52.86Zm-85.14,1.1c.95,18.11,15.55,31.59,33.3,30.75,18.16-.86,30.5-15.22,30.17-33.62-.35-19.16-17.27-31.85-33.45-30.9-18.24,1.07-30.99,15.29-30.01,33.77Z"/>
      <path class="cls-2" d="m255.11,535.92c0-14.83.06-29.67-.05-44.5-.03-3.72,1.36-5.25,5.12-5.07,4.6.21,9.21.11,13.82.05,1.9-.02,3.23.55,3.53,2.58.39,2.59,1.64,2.39,3.62,1.46,7.93-3.73,15.94-7.45,25.07-6.2,21.65,2.96,35.64,13.63,36.59,37.17.75,18.79,1.04,37.61,1.21,56.41.08,8.55-.74,9.08-9.33,9.22-14.87.25-13.06,1.5-13.16-12.73-.12-16.79-.04-33.58-.37-50.36-.14-7.14-2.64-13.45-9.1-17.5-7.56-4.74-27.58-4.44-31.82,6.99-2.15,5.81-2.94,11.77-3.09,17.89-.38,16.08-.6,32.16-.19,48.24.17,6.9-.8,7.67-7.71,7.51-3.12-.07-6.23-.41-9.34-.61-3.36-.21-4.78-1.99-4.77-5.34.06-15.07.03-30.13.03-45.2-.02,0-.04,0-.06,0Z"/>
      <path class="cls-2" d="m105.18,524.17c0-19.59-.02-39.18.02-58.76,0-3.09-1.53-4.02-4.38-4.02-9.68-.02-19.36-.13-29.04-.27-6.8-.1-7.47-.81-7.5-7.52-.01-2.97-.06-5.93.03-8.9.08-2.53,1.47-3.81,4.05-3.81,32.72-.01,65.43-.03,98.15-.07,2.74,0,4.14,1.55,4.24,4,.18,4.51.2,9.05-.02,13.56-.12,2.54-2.15,3.08-4.41,3.09-11.08.06-22.17-.66-33.25.1-2.98.2-4.1,1.61-4.38,4.33-.57,5.46-.18,10.91-.16,16.37.1,32.63.07,65.26.19,97.9.02,4.66-1.78,7.05-6.57,6.94-3.66-.08-7.33-.18-11-.09-4.18.1-5.54-1.99-5.53-5.93.05-15.69-.06-31.38-.1-47.07,0-3.28,0-6.56,0-9.84h-.31Z"/>
      <path class="cls-2" d="m385.33,484.18c10.13.59,19.66,3.11,28.02,9.13,2.29,1.65,2.76,3.89,1.6,6.63-3.18,7.55-8.67,9.57-15.98,6.02-6.17-3-12.77-3.07-19.37-1.87-4.38.8-6.37,3.98-6.8,8.12-.46,4.39,1.71,7.36,5.5,9.45,6.24,3.45,13.23,5.1,19.57,8.26,10.87,5.41,18.66,13.43,21.19,25.73,1.44,6.99-5.09,20.91-11.58,25.42-7.58,5.27-16.16,7.71-25.07,7.6-11.42-.15-22.07-3.62-30.95-11.32-2.19-1.9-2.47-3.95-.83-6.39,1.43-2.13,2.69-4.39,3.97-6.62,1.86-3.25,4.41-3.65,7.51-1.88,6.36,3.63,12.51,7.69,20.26,7.83,6.43.11,11.19-2.24,13.02-6.78,2.56-6.32.6-11.3-5.65-14.18-6.37-2.93-13.09-5.26-19.08-8.81-10.06-5.96-19.28-12.89-18.95-26.54.3-12.37,8.81-23.59,21-27.56,4.13-1.34,8.24-2.37,12.64-2.23Z"/>
      <path class="cls-1" d="m978.81,531.31c.34,7.63-.65,15.69.48,23.69,1.15,8.21,8.61,15.75,17.74,16.35,4.25.2,6.57-.05,9.55-.29,1.36-.11,2.29.88,2.27,2.43,0,6.69,1.2,11.48-1.31,12.92-3.97,1.85-16.35.81-23.38-.99-13.95-3.44-21.06-10.39-25.54-24.35-2.36-7.35-2.7-16.13-2.64-23.76.07-9.21.02-18.42.09-27.64,0-4.91-.42-5.21-5.1-5.21-4.01-.12-7.98-.01-12.32-.01s-2.84-8.55-2.84-13.78c0-2.69,1.55-3.73,5.04-3.58,3.81.15,7.63,0,11.45.03,3.87,0,4.28-.98,4.32-4.81.04-3.83-.14-8.9-.19-13.85-.03-3.08.3-4.46,3.66-4.31,5.34.24,10.69.17,16.04.1,2.2-.03,2.84.95,2.83,2.97-.04,5.38.16,10.77.03,16.15-.09,3.46,2.03,3.94,4.61,3.95,8.04.03,16.09.1,24.13-.05,4.49-.09,6.29,1.9,6.26,6.29-.1,11.79.65,10.89-10.94,10.92-6.32.01-12.65-.11-18.97-.11-5.14,0-5.25.79-5.25,5.24.03,7.1,0,14.21,0,21.72Z"/>
      <path class="cls-2" d="m718.89,500.04c0,16.93.05,33.87-.02,50.8-.03,7.47,2.92,13.24,9.03,17.48,4.87,3.38,7.36,12.55,5,18.02-.72,1.68-2.2,1.61-3.56,1.58-17.57-.48-32.22-11.9-33.34-30.86-.86-14.66-.34-29.34-.28-44.01.09-20.2.46-40.4,0-60.61-.3-13.43-.96-11.65,11.31-11.86,11.86-.21,11.81-.06,11.77,11.93-.05,15.84-.01,31.69-.01,47.53h.1Z"/>
      <path class="cls-2" d="m534.96,536.41c0-14.99.09-29.99-.06-44.98-.04-4.28,1.62-5.72,5.76-5.34,4.27.39,8.57.39,12.86.53,2.43.08,4.06.8,4.56,3.62.49,2.77,2.03,3.59,4.63,1.56,6.13-4.8,13.29-6.69,20.97-6.87,3.22-.07,5,1.54,5.1,4.77.1,3.19.1,6.39.11,9.59,0,3.43-1.76,5-5.15,5.37-5.91.64-12.07.35-16.92,4.94-7.97,7.56-9.86,17.24-9.9,27.57-.05,14.91-.09,29.83.07,44.74.04,3.72-1.26,5.34-5,5.21-4.13-.15-8.28-.08-12.42-.11-3.09-.02-4.7-1.32-4.69-4.68.08-15.3.04-30.61.04-45.91h.02Z"/>
    </g>
  </g>
</svg>